<?xml version="1.0" encoding="utf-8"?>
<!-- Generator: Adobe Illustrator 16.2.1, SVG Export Plug-In . SVG Version: 6.00 Build 0)  -->
<!DOCTYPE svg PUBLIC "-//W3C//DTD SVG 1.1//EN" "http://www.w3.org/Graphics/SVG/1.1/DTD/svg11.dtd">
<svg version="1.1" id="Layer_1" xmlns="http://www.w3.org/2000/svg" xmlns:xlink="http://www.w3.org/1999/xlink" x="0px" y="0px"
	 width="7098.188px" height="2381.417px" viewBox="0 0 7098.188 2381.417" enable-background="new 0 0 7098.188 2381.417"
	 xml:space="preserve">
<g id="Layer_2_3_">
	<g>
		<polygon fill="#A1BDD4" points="6039.82,1197.056 5742.771,1723.775 5939.28,1193.869 		"/>
		<polygon fill="#70787C" points="5939.28,1193.869 5742.771,1723.775 5841.143,1420.882 		"/>
		<polygon fill="#64839E" points="6130.787,1191.761 5923.431,1626.435 6039.82,1197.056 		"/>
		<polygon fill="#B1BFC7" points="6039.82,1197.056 5923.431,1626.435 5742.771,1723.775 		"/>
		<polygon fill="#88A6BF" points="6150.489,1395.988 5923.431,1626.435 6130.787,1191.761 		"/>
		<polygon fill="#9DC0DB" points="6358.395,1368.123 6150.489,1395.988 6130.787,1191.761 		"/>
		<polygon fill="#A7C6DF" points="5760.246,1731.13 5758.405,1663.273 5923.431,1626.435 		"/>
		<polygon fill="#C0D1D8" points="6150.489,1395.988 6002.457,1827.351 5923.431,1626.435 		"/>
		<polygon fill="#AACCE6" points="6002.457,1827.351 5760.246,1731.13 5923.431,1626.435 		"/>
		<polygon fill="#CAE5F9" points="6390.059,1363.88 6237.386,1699.47 6150.489,1395.988 		"/>
		<polygon fill="#8EB0CD" points="6237.386,1699.47 6002.457,1827.351 6150.489,1395.988 		"/>
		<polygon fill="#A0C3E0" points="6002.457,1827.351 5746.658,2167.091 5760.246,1731.13 		"/>
		<polygon fill="#C0DCF3" points="5746.658,2167.091 5516.617,2254.222 5760.246,1731.13 		"/>
		<polygon fill="#8E9CA4" points="5473.66,2183.267 5516.617,2254.222 5760.246,1731.13 5586.228,2012.283 		"/>
		<polygon fill="#90B6D3" points="6754.822,1718.488 6533.779,1743.65 6691.728,1570.201 		"/>
		<polygon fill="#A5C9E7" points="6533.779,1743.65 6237.386,1699.47 6390.059,1363.88 		"/>
		<polygon fill="#93B9D7" points="6691.728,1570.201 6533.779,1743.65 6390.059,1363.88 		"/>
		<polygon fill="#8AAECB" points="6237.386,1699.47 6028.989,2187.798 6002.457,1827.351 		"/>
		<polygon fill="#B8D8F3" points="6197.984,2159.867 6028.989,2187.798 6237.386,1699.47 		"/>
		<polygon fill="#E6F3FB" points="6533.779,1743.65 6197.984,2159.867 6237.386,1699.47 		"/>
		<polygon fill="#8EB0CB" points="5819.566,2271.294 5746.658,2167.091 6002.457,1827.351 		"/>
		<polygon fill="#CEE6F9" points="6028.989,2187.798 5819.566,2271.294 6002.457,1827.351 		"/>
		<polygon fill="#98BDDE" points="6904.076,1781.843 6745.527,2053.693 6754.822,1718.488 		"/>
		<polygon fill="#A0BED4" points="6754.822,1718.488 6745.527,2053.693 6533.779,1743.65 		"/>
		<polygon fill="#A0C6E5" points="6233.146,2355.429 6028.989,2187.798 6197.984,2159.867 		"/>
		<polygon fill="#90B7D7" points="6515.662,2209.638 6233.146,2355.429 6197.984,2159.867 		"/>
		<polygon fill="#8EB4D6" points="6515.662,2209.638 6197.984,2159.867 6533.779,1743.65 		"/>
		<polygon fill="#DEE8E7" points="6745.527,2053.693 6515.662,2209.638 6533.779,1743.65 		"/>
		<polygon fill="#AACDE9" points="7074.328,2252.398 7074.328,2268.707 6745.527,2053.693 6904.076,1781.843 		"/>
		<polygon fill="#89B2D5" points="6028.989,2187.798 5928.958,2343.888 5689.077,2322.743 		"/>
		<polygon fill="#DBE4E9" points="5746.658,2167.091 5819.566,2271.294 5516.617,2254.222 		"/>
		<polygon fill="#9ABDDA" points="6233.146,2355.429 5905.594,2380.039 6028.989,2187.798 		"/>
		<polygon fill="#92BADB" points="7074.328,2351.037 7074.328,2380.039 6515.662,2209.638 6745.527,2053.693 		"/>
		<polygon fill="#7EA3C0" points="7074.328,2268.707 7074.328,2351.037 6745.527,2053.693 		"/>
		<polygon fill="#C8D8DF" points="7074.328,2380.039 7074.328,2383.417 6848.824,2330.361 6515.662,2209.638 		"/>
		<polygon fill="#B4CEDF" points="6848.824,2330.361 6224.439,2262.023 6515.662,2209.638 		"/>
	</g>
</g>
<g>
	<polygon fill="#6EABDF" stroke="#6EABDF" stroke-width="0.3306" points="3821.084,1707.626 3957.899,1703.947 3765.853,1719.914 	
		"/>
	<polygon fill="#6EABDF" stroke="#6EABDF" stroke-width="0.3306" points="3928.853,1700.589 3957.899,1703.947 3876.274,1722.585 	
		"/>
	<polygon fill="#6EABDF" stroke="#6EABDF" stroke-width="0.3306" points="3928.853,1700.589 4053.679,1660.347 3957.899,1703.947 	
		"/>
	<polygon fill="#6EABDF" stroke="#6EABDF" stroke-width="0.3306" points="3463.438,1714.738 3506.931,1702.722 3403.19,1739.558 	
		"/>
	<polygon fill="#95A3A9" points="3724.127,857.978 3831.685,828.579 3718.739,896.254 	"/>
	<polygon fill="#505E68" points="3724.127,857.978 3718.739,896.254 3587.323,677.841 	"/>
	<polygon fill="#C5D7DF" points="3831.685,828.579 3929.267,863.103 3792.022,995.107 	"/>
	<polygon fill="#E0EBEA" points="3831.685,828.579 3792.022,995.107 3718.739,896.254 	"/>
	<polygon fill="#90B4D1" points="3587.323,677.841 3671.866,992.935 3505.125,768.866 	"/>
	<polygon fill="#AFC1CC" points="3718.739,896.254 3792.022,995.107 3671.866,992.935 	"/>
	<polygon fill="#A3B5BF" points="3587.323,677.841 3718.739,896.254 3671.866,992.935 	"/>
	<polygon fill="#6A8AA3" points="3929.267,863.103 3916.702,926.723 3792.022,995.107 	"/>
	<polygon fill="#6A757D" points="3929.267,863.103 4042.209,1085.774 3916.702,926.723 	"/>
	<polygon fill="#72828C" points="3505.125,768.866 3671.866,992.935 3566.33,916.9 	"/>
	<polygon fill="#6E7676" points="3505.125,768.866 3566.33,916.9 3419.61,685.302 	"/>
	<polygon fill="#99ABB4" points="3671.866,992.935 3788.433,875.995 3702.386,1072.899 	"/>
	<polygon fill="#536B80" points="3671.866,992.935 3702.386,1072.899 3566.33,916.9 	"/>
	<polygon fill="#A6C9E3" points="3318.056,784.263 3345.035,1037.362 3201.006,1018.323 	"/>
	<polygon fill="#CEE7F7" points="3318.056,784.263 3520.314,1108.595 3345.035,1037.362 	"/>
	<polygon fill="#ADC4D3" points="3419.61,685.302 3566.33,916.9 3520.314,1108.595 	"/>
	<polygon fill="#F3F9F9" points="3419.61,685.302 3520.314,1108.595 3318.056,784.263 	"/>
	<polygon fill="#9DC3E0" points="3788.433,875.995 3755.198,1257.914 3702.386,1072.899 	"/>
	<polygon fill="#BCC6C6" points="4042.209,1085.774 4069.146,1579.517 3916.702,926.723 	"/>
	<polygon fill="#ADC1CE" points="3788.433,875.995 3906.409,1628.367 3755.198,1257.914 	"/>
	<polygon fill="#CBD9DC" points="3916.702,926.723 3906.409,1628.367 3788.433,875.995 	"/>
	<polygon fill="#B0D1EE" points="3916.702,926.723 4069.146,1579.517 3906.409,1628.367 	"/>
	<polygon fill="#FFFFFF" points="3702.386,1072.899 3755.198,1257.914 3612.748,1352.968 	"/>
	<polygon fill="#AAC0CF" points="3566.33,916.9 3612.748,1352.968 3520.314,1108.595 	"/>
	<polygon fill="#D0E6F4" points="3566.33,916.9 3702.386,1072.899 3612.748,1352.968 	"/>
	<polygon fill="#DBEEFC" points="3520.314,1108.595 3428.176,1418.275 3345.035,1037.362 	"/>
	<polygon fill="#7E92A1" points="3201.006,1018.323 3227.404,1168.903 3140.334,1238.628 	"/>
	<polygon fill="#A5BDCE" points="3201.006,1018.323 3345.035,1037.362 3227.404,1168.903 	"/>
	<polygon fill="#9FB2BF" points="3755.198,1257.914 3906.409,1628.367 3821.407,1760.943 	"/>
	<polygon fill="#889EAF" points="3345.035,1037.362 3428.176,1418.275 3316.002,1434.023 	"/>
	<polygon fill="#99ABB7" points="3345.035,1037.362 3316.002,1434.023 3227.404,1168.903 	"/>
	<polygon fill="#AFD3F1" points="4069.146,1579.517 3984.603,1881.734 3906.409,1628.367 	"/>
	<polygon fill="#B2C7D4" points="4069.146,1579.517 4123.771,1875.371 3984.603,1881.734 	"/>
	<polygon fill="#CCE4F8" points="3906.409,1628.367 3984.603,1881.734 3821.407,1760.943 	"/>
	<polygon fill="#576470" points="3755.198,1257.914 3821.407,1760.943 3729.881,1455.878 	"/>
	<polygon fill="#C2DBEA" points="3755.198,1257.914 3729.881,1455.878 3612.748,1352.968 	"/>
	<polygon fill="#A0AAAD" points="3612.748,1352.968 3729.881,1455.878 3557.966,1335.736 	"/>
	<polygon fill="#61707D" points="3520.314,1108.595 3612.748,1352.968 3557.966,1335.736 	"/>
	<polygon fill="#8DA7B9" points="3520.314,1108.595 3557.966,1335.736 3428.176,1418.275 	"/>
	<polygon fill="#3B5062" points="3821.407,1760.943 3807.858,1868.705 3729.881,1455.878 	"/>
	<polygon fill="#A3B8C8" points="3821.407,1760.943 3984.603,1881.734 3807.858,1868.705 	"/>
	<polygon fill="#8296A6" points="3729.881,1455.878 3807.858,1868.705 3658.25,1723.724 	"/>
	<polygon fill="#D8E3E3" points="3729.881,1455.878 3658.25,1723.724 3557.966,1335.736 	"/>
	<polygon fill="#A1BDD4" points="3130.953,941.892 3324.075,1471.796 3032.147,945.077 	"/>
	<polygon fill="#6EABDF" stroke="#6EABDF" stroke-width="0.3306" points="3227.404,1168.903 3316.002,1434.023 3324.075,1471.796 	
		"/>
	<polygon fill="#70787C" points="3227.404,1168.903 3324.075,1471.796 3130.953,941.892 	"/>
	<polygon fill="#728596" points="3557.966,1335.736 3658.25,1723.724 3510.207,1457.242 	"/>
	<polygon fill="#6EABDF" stroke="#6EABDF" stroke-width="0.3306" points="3316.002,1434.023 3510.207,1457.242 3324.075,1471.796 	
		"/>
	<polygon fill="#6EABDF" stroke="#6EABDF" stroke-width="0.3306" points="3428.176,1418.275 3510.207,1457.242 3316.002,1434.023 	
		"/>
	<polygon fill="#9BB2C0" points="3428.176,1418.275 3557.966,1335.736 3510.207,1457.242 	"/>
	<polygon fill="#64839E" points="3032.147,945.077 3146.53,1374.457 2942.746,939.783 	"/>
	<polygon fill="#B1BFC7" points="3324.075,1471.796 3146.53,1374.457 3032.147,945.077 	"/>
	<polygon fill="#95ACBD" points="3807.858,1868.705 3984.603,1881.734 3734.354,1902.054 	"/>
	<polygon fill="#7E878C" points="3658.25,1723.724 3734.354,1902.054 3510.207,1457.242 	"/>
	<polygon fill="#A3ACAF" points="3807.858,1868.705 3734.354,1902.054 3658.25,1723.724 	"/>
	<polygon fill="#ADC7DB" points="3510.207,1457.242 3734.354,1902.054 3588.554,1931.289 	"/>
	<polygon fill="#757C7F" points="3510.207,1457.242 3588.554,1931.289 3458.181,1318.666 	"/>
	<polygon fill="#88A6BF" points="2942.746,939.783 3146.53,1374.457 2923.384,1144.009 	"/>
	<polygon fill="#9DC0DB" points="2942.746,939.783 2923.384,1144.009 2719.058,1116.146 	"/>
	<polygon fill="#758B9C" points="3458.181,1318.666 3588.554,1931.289 3477.928,1760.306 	"/>
	<polygon fill="#B8D9F4" points="3458.181,1318.666 3477.928,1760.306 3308.717,1411.294 	"/>
	<polygon fill="#6E879B" points="3308.717,1411.294 3477.928,1760.306 3306.904,1479.152 	"/>
	<polygon fill="#A7C6DF" points="3146.53,1374.457 3308.717,1411.294 3306.904,1479.152 	"/>
	<polygon fill="#C0D1D8" points="3146.53,1374.457 3068.866,1575.373 2923.384,1144.009 	"/>
	<polygon fill="#AACCE6" points="3146.53,1374.457 3306.904,1479.152 3068.866,1575.373 	"/>
	<polygon fill="#CAE5F9" points="2923.384,1144.009 2837.986,1447.492 2687.939,1111.9 	"/>
	<polygon fill="#8EB0CD" points="2923.384,1144.009 3068.866,1575.373 2837.986,1447.492 	"/>
	<polygon fill="#87A8C3" points="3984.603,1881.734 4136.084,1950.677 3734.354,1902.054 	"/>
	<polygon fill="#A8C2D6" points="3984.603,1881.734 4256.025,1904.583 4136.084,1950.677 	"/>
	<polygon fill="#C6DBE7" points="3734.354,1902.054 4136.084,1950.677 3588.554,1931.289 	"/>
	<polygon fill="#A0C3E0" points="3306.904,1479.152 3320.261,1915.111 3068.866,1575.373 	"/>
	<polygon fill="#C0DCF3" points="3306.904,1479.152 3546.338,2002.244 3320.261,1915.111 	"/>
	<polygon fill="#8E9CA4" points="3477.928,1760.306 3306.904,1479.152 3546.338,2002.244 3588.554,1931.289 	"/>
	<polygon fill="#90B6D3" points="2391.468,1318.222 2546.696,1491.671 2329.461,1466.509 	"/>
	<polygon fill="#A5C9E7" points="2687.939,1111.9 2837.986,1447.492 2546.696,1491.671 	"/>
	<polygon fill="#93B9D7" points="2687.939,1111.9 2546.696,1491.671 2391.468,1318.222 	"/>
	<polygon fill="#8AAECB" points="3068.866,1575.373 3042.791,1935.82 2837.986,1447.492 	"/>
	<polygon fill="#B8D8F3" points="2837.986,1447.492 3042.791,1935.82 2876.705,1907.888 	"/>
	<polygon fill="#E6F3FB" points="2837.986,1447.492 2876.705,1907.888 2546.696,1491.671 	"/>
	<polygon fill="#DDEAED" points="3588.554,1931.289 3699.881,1998.361 3546.338,2002.244 	"/>
	<polygon fill="#A0C2E0" points="3320.261,1915.111 3546.338,2002.244 3248.605,2019.318 	"/>
	<polygon fill="#8EB0CB" points="3068.866,1575.373 3320.261,1915.111 3248.605,2019.318 	"/>
	<polygon fill="#CEE6F9" points="3068.866,1575.373 3248.605,2019.318 3042.791,1935.82 	"/>
	<polygon fill="#6EABDF" stroke="#6EABDF" stroke-width="0.3306" points="3546.338,2002.244 3699.881,1998.361 3248.605,2019.318 	
		"/>
	<polygon fill="#98BDDE" points="2329.461,1466.509 2338.598,1801.714 2182.777,1529.865 	"/>
	<polygon fill="#A0BED4" points="2546.696,1491.671 2338.598,1801.714 2329.461,1466.509 	"/>
	<polygon fill="#96B5D0" points="3588.554,1931.289 3928.968,2064.681 3699.881,1998.361 	"/>
	<polygon fill="#A7C5DE" points="3588.554,1931.289 4136.084,1950.677 3928.968,2064.681 	"/>
	<polygon fill="#A0C6E5" points="2876.705,1907.888 3042.791,1935.82 2842.148,2103.451 	"/>
	<polygon fill="#90B7D7" points="2876.705,1907.888 2842.148,2103.451 2564.496,1957.66 	"/>
	<polygon fill="#8EB4D6" points="2546.696,1491.671 2876.705,1907.888 2564.496,1957.66 	"/>
	<polygon fill="#DEE8E7" points="2546.696,1491.671 2564.496,1957.66 2338.598,1801.714 	"/>
	<polygon fill="#AACDE9" points="2182.777,1529.865 2338.598,1801.714 2015.457,2016.73 	"/>
	<polygon fill="#7594AC" points="2182.777,1529.865 2015.457,2014.638 1803.981,1950.677 	"/>
	<polygon fill="#97BBD9" points="3248.605,2019.318 3699.881,1998.361 3141.097,2091.91 	"/>
	<polygon fill="#89B2D5" points="3248.605,2019.318 3141.097,2091.91 3042.791,1935.82 	"/>
	<polygon fill="#9ABDDA" points="3042.791,1935.82 3141.097,2091.91 2842.148,2103.451 	"/>
	<polygon fill="#8CB5D7" points="4137.492,1948.836 4191.681,2130.419 3928.968,2064.681 	"/>
	<polygon fill="#ACCAE2" points="3699.881,1998.361 3928.968,2064.681 3459.363,2132.191 	"/>
	<polygon fill="#EAF5F8" points="3699.881,1998.361 3459.363,2132.191 3141.097,2091.91 	"/>
	<polygon fill="#92BADB" points="2338.598,1801.714 2564.496,1957.66 2015.457,2128.06 2015.457,2099.058 	"/>
	<polygon fill="#7EA3C0" points="2338.598,1801.714 2009.904,2103.451 2015.457,2016.73 	"/>
	<polygon fill="#6EABDF" stroke="#6EABDF" stroke-width="0.3306" points="3928.968,2064.681 4191.681,2130.419 3715.269,2085.695 	
		"/>
	<polygon fill="#C8D8DF" points="2564.496,1957.66 2237.076,2078.382 2015.457,2131.441 2015.457,2128.06 	"/>
	<polygon fill="#B4CEDF" points="2564.496,1957.66 2850.705,2010.044 2237.076,2078.382 	"/>
	<polygon fill="#8CB0CE" points="3141.097,2091.91 3084.185,2107.121 2850.705,2010.044 	"/>
	<polygon fill="#6EABDF" stroke="#6EABDF" stroke-width="0.3306" points="3141.097,2091.91 3418.988,2032.691 3084.185,2107.121 	
		"/>
	<polygon fill="#7CA2C2" points="2015.457,2131.441 2237.076,2078.382 1756.979,2232.099 	"/>
	<polygon fill="#A5C1D6" points="2237.076,2078.382 2850.705,2010.044 2254.371,2223.458 	"/>
	<polygon fill="#B1C8D8" points="2237.076,2078.382 2254.371,2223.458 2015.457,2231.037 1754.74,2232.074 2015.457,2149.179 	"/>
	<polygon fill="#B2CADB" points="3418.988,2032.691 2924.932,2220.13 3084.185,2107.121 	"/>
	<polygon fill="#A8C3D8" points="2850.705,2010.044 2924.932,2220.13 2254.371,2223.458 	"/>
	<polygon fill="#B3CBDD" points="2850.705,2010.044 3084.185,2107.121 2924.932,2220.13 	"/>
	<polygon fill="#8BB3D5" points="4285.401,2047.867 4703.299,2318.583 4050.513,2051.226 	"/>
	<polygon fill="#DFECEF" points="3715.269,2085.695 3686.854,2232.074 3418.988,2032.691 	"/>
	<polygon fill="#AEC9DD" points="3715.269,2085.695 4050.513,2051.226 3686.854,2232.074 	"/>
	<polygon fill="#D3E2E8" points="3418.988,2032.691 3686.854,2232.074 2924.932,2220.13 	"/>
	<polygon fill="#CBDCE5" points="4050.513,2051.226 4041.856,2212.195 3686.854,2232.074 	"/>
	<polygon fill="#E2F1F4" points="4050.513,2051.226 4703.299,2318.583 4041.856,2212.195 	"/>
	<polygon fill="#DFE6E2" points="2254.371,2223.458 2121.768,2380.417 1754.74,2232.074 2015.457,2231.037 	"/>
	<polygon fill="#D6E1E3" points="2254.371,2223.458 2530.42,2380.417 2121.768,2380.417 	"/>
	<polygon fill="#B4C8D5" points="2924.932,2220.13 2755.262,2380.417 2530.42,2380.417 2254.371,2223.458 	"/>
	<polygon fill="#7EA0BE" points="4041.856,2212.195 4042.763,2380.417 3858.002,2380.417 3686.854,2232.074 	"/>
	<polygon fill="#D0DADC" points="4041.856,2212.195 4477.985,2380.417 4042.763,2380.417 	"/>
	<polygon fill="#F1F6F4" points="4706.36,2318.419 4790.594,2380.417 4477.985,2380.417 4041.856,2212.195 	"/>
	<polygon fill="#ADC2D1" points="3686.854,2232.074 3858.002,2380.417 3688.019,2380.417 	"/>
	<polygon fill="#9BB5CC" points="2924.932,2220.13 3686.854,2232.074 3688.019,2380.417 3054.988,2380.417 	"/>
	<polygon fill="#A9BECC" points="2924.932,2220.13 3054.988,2380.417 2755.262,2380.417 	"/>
	<polygon fill="#99C7EC" points="2015.457,2014.638 1580.715,2128.06 1803.981,1950.677 	"/>
	<polygon fill="#94C1E5" points="1580.715,2128.06 1745.229,2132.384 2014.627,2014.638 	"/>
	<polygon fill="#9FD0F9" points="1754.74,2128.595 2016.619,2129.253 2016.619,2013.863 	"/>
	<path fill="#EEFFFF" d="M2024.586,2129.253c-81.297,29.096-269.846,102.82-269.846,102.82l-170.67-103.926L2024.586,2129.253z"/>
</g>
<polygon fill="#ADC2D1" points="6848.824,2330.361 6572.715,2381.417 7059.967,2381.417 "/>
<polygon fill="#D6E1E3" points="6380.954,2279.153 6572.715,2381.417 6848.824,2330.361 "/>
<polygon fill="#EEFFFF" points="6380.954,2279.153 6181.594,2380.039 6572.715,2380.039 "/>
<polygon fill="#EEFFFF" points="5928.958,2343.888 5689.077,2322.743 5905.594,2380.039 "/>
</svg>
