<?xml version="1.0" encoding="utf-8"?>
<!-- Generator: Adobe Illustrator 16.2.1, SVG Export Plug-In . SVG Version: 6.00 Build 0)  -->
<!DOCTYPE svg PUBLIC "-//W3C//DTD SVG 1.1//EN" "http://www.w3.org/Graphics/SVG/1.1/DTD/svg11.dtd">
<svg version="1.1" id="Layer_1" xmlns="http://www.w3.org/2000/svg" xmlns:xlink="http://www.w3.org/1999/xlink" x="0px" y="0px"
	 width="7098.188px" height="2381.417px" viewBox="0 0 7098.188 2381.417" enable-background="new 0 0 7098.188 2381.417"
	 xml:space="preserve">
<g id="Layer_1_2_">
	<g id="Layer_4">
		<polygon fill="#6EABDF" stroke="#6EABDF" stroke-width="0.3306" points="1213.676,1691.843 1278.416,1701.095 1170.414,1702.542 
					"/>
		<polygon fill="#6EABDF" stroke="#6EABDF" stroke-width="0.3306" points="1278.416,1701.095 1562.708,1699.144 1456.708,1716.929 
					"/>
		<polygon fill="#6EABDF" stroke="#6EABDF" stroke-width="0.3306" points="1080.7,1686 1158.493,1690.845 987.464,1698.958 		"/>
		<polygon fill="#6EABDF" stroke="#6EABDF" stroke-width="0.3306" points="889.756,1705.996 1013.8,1702.316 839.682,1718.283 		"/>
		<polygon fill="#6EABDF" stroke="#6EABDF" stroke-width="0.3306" points="987.464,1698.958 1013.8,1702.316 939.794,1720.955 		"/>
		<polygon fill="#6EABDF" stroke="#6EABDF" stroke-width="0.3306" points="1562.708,1699.144 1719.843,1727.191 1456.708,1716.929 
					"/>
		<polygon fill="#6EABDF" stroke="#6EABDF" stroke-width="0.3306" points="987.464,1698.958 1100.636,1658.716 1013.8,1702.316 		
			"/>
		<polygon fill="#6EABDF" stroke="#6EABDF" stroke-width="0.3306" points="565.501,1713.107 604.932,1701.091 510.879,1737.925 		
			"/>
		<polygon fill="#6EABDF" stroke="#6EABDF" stroke-width="0.3306" points="1652.042,1088.312 1562.646,1018.043 1463.934,936.125 		
			"/>
		<polygon fill="#95A3A9" points="801.852,856.345 899.368,826.949 796.968,894.623 		"/>
		<polygon fill="#C5D7DF" points="899.368,826.949 987.839,861.472 863.407,993.476 		"/>
		<polygon fill="#E0EBEA" points="899.368,826.949 863.407,993.476 796.968,894.623 		"/>
		<polygon fill="#AFC1CC" points="796.968,894.623 863.407,993.476 754.469,991.302 		"/>
		<polygon fill="#B0C0C8" points="987.839,861.472 1140.479,999.882 1090.236,1084.143 		"/>
		<polygon fill="#6EABDF" stroke="#6EABDF" stroke-width="0.3306" points="2127.365,1248.488 2464.277,1504.865 2434.304,1550.644 
					"/>
		<polygon fill="#6A8AA3" points="987.839,861.472 976.448,925.091 863.407,993.476 		"/>
		<polygon fill="#6A757D" points="987.839,861.472 1090.236,1084.143 976.448,925.091 		"/>
		<polygon fill="#6EABDF" stroke="#6EABDF" stroke-width="0.3306" points="2127.365,1248.488 2434.304,1550.644 2354.711,1490.042 
					"/>
		<polygon fill="#6EABDF" stroke="#6EABDF" stroke-width="0.3306" points="2047.048,846.534 2214.95,1099.152 2095.281,1046.755 		
			"/>
		<polygon fill="#6EABDF" stroke="#6EABDF" stroke-width="0.3306" points="2047.048,846.534 2095.281,1046.755 1978.167,703.535 		
			"/>
		<polygon fill="#D2E2E8" points="1271.451,897.564 1457.15,803.896 1296.333,1098.768 		"/>
		<polygon fill="#E4F0F0" points="1271.451,897.564 1296.333,1098.768 1202.138,1264.371 		"/>
		<polygon fill="#8AAAC3" points="1140.479,999.882 1202.138,1264.371 1090.236,1084.143 		"/>
		<polygon fill="#C8D9E0" points="1140.479,999.882 1271.451,897.564 1202.138,1264.371 		"/>
		<polygon fill="#99ABB4" points="754.469,991.302 860.153,874.365 782.14,1071.268 		"/>
		<polygon fill="#536B80" points="754.469,991.302 782.14,1071.268 658.786,915.27 		"/>
		<polygon fill="#6EABDF" stroke="#6EABDF" stroke-width="0.3306" points="2464.277,1504.865 2581.332,1519.816 2434.304,1550.644 
					"/>
		<polygon fill="#6EABDF" stroke="#6EABDF" stroke-width="0.3306" points="2712.075,1594.375 2711.55,1664.541 2581.332,1519.816 		
			"/>
		<polygon fill="#6EABDF" stroke="#6EABDF" stroke-width="0.3306" points="2712.075,1594.375 2876.957,1643.652 2711.55,1664.541 		
			"/>
		<polygon fill="#9CB3C2" points="1457.15,803.896 1489.355,859.258 1296.333,1098.768 		"/>
		<polygon fill="#B0BFC5" points="1457.15,803.896 1698.989,846.729 1489.355,859.258 		"/>
		<polygon fill="#9DC3E0" points="860.153,874.365 830.021,1256.283 782.14,1071.268 		"/>
		<polygon fill="#BCC6C6" points="1090.236,1084.143 1114.657,1577.884 976.448,925.091 		"/>
		<polygon fill="#D9EDF6" points="1090.236,1084.143 1202.138,1264.371 1114.657,1577.884 		"/>
		<polygon fill="#ADC1CE" points="860.153,874.365 967.117,1626.736 830.021,1256.283 		"/>
		<polygon fill="#CBD9DC" points="976.448,925.091 967.117,1626.736 860.153,874.365 		"/>
		<polygon fill="#B0D1EE" points="976.448,925.091 1114.657,1577.884 967.117,1626.736 		"/>
		<polygon fill="#CCE5F8" points="1202.138,1264.371 1252.049,1626.056 1114.657,1577.884 		"/>
		<polygon fill="#6EABDF" stroke="#6EABDF" stroke-width="0.3306" points="2214.95,1099.152 2457.732,1403.281 2373.171,1436.535 		
			"/>
		<polygon fill="#6EABDF" stroke="#6EABDF" stroke-width="0.3306" points="2095.281,1046.755 2373.171,1436.535 2108.445,1077.532 
					"/>
		<polygon fill="#6EABDF" stroke="#6EABDF" stroke-width="0.3306" points="2214.95,1099.152 2373.171,1436.535 2095.281,1046.755 		
			"/>
		<polygon fill="#FFFFFF" points="782.14,1071.268 830.021,1256.283 700.869,1351.335 		"/>
		<polygon fill="#AAC0CF" points="658.786,915.27 700.869,1351.335 617.068,1106.962 		"/>
		<polygon fill="#D0E6F4" points="658.786,915.27 782.14,1071.268 700.869,1351.335 		"/>
		<polygon fill="#DBEEFC" points="617.068,1106.962 533.529,1416.644 458.153,1035.73 		"/>
		<polygon fill="#CADCE5" points="1296.333,1098.768 1489.355,859.258 1360.986,1428.205 		"/>
		<polygon fill="#C8DBE5" points="1202.138,1264.371 1360.986,1428.205 1252.049,1626.056 		"/>
		<polygon fill="#F5FAFB" points="1296.333,1098.768 1360.986,1428.205 1202.138,1264.371 		"/>
		<polygon fill="#D8EAF2" points="1489.355,859.258 1698.989,846.729 1630.404,1109.263 		"/>
		<polygon fill="#ACBEC8" points="1252.049,1626.056 1360.986,1428.205 1164.186,1873.74 		"/>
		<polygon fill="#E9F5FA" points="1114.657,1577.884 1252.049,1626.056 1164.186,1873.74 		"/>
		<polygon fill="#9FB2BF" points="830.021,1256.283 967.117,1626.736 890.051,1759.312 		"/>
		<polygon fill="#889EAF" points="458.153,1035.73 533.529,1416.644 431.83,1432.392 		"/>
		<polygon fill="#6EABDF" stroke="#6EABDF" stroke-width="0.3306" points="2108.445,1077.532 2243.132,1254.267 2118.027,1163.455 
					"/>
		<polygon fill="#82A6C3" points="1489.355,859.258 1545.736,1066.015 1360.986,1428.205 		"/>
		<polygon fill="#818E97" points="1489.355,859.258 1630.404,1109.263 1545.736,1066.015 		"/>
		<polygon fill="#AFD3F1" points="1114.657,1577.884 1038.009,1880.101 967.117,1626.736 		"/>
		<polygon fill="#B2C7D4" points="1114.657,1577.884 1164.186,1873.74 1038.009,1880.101 		"/>
		<polygon fill="#CCE4F8" points="967.117,1626.736 1038.009,1880.101 890.051,1759.312 		"/>
		<polygon fill="#576470" points="830.021,1256.283 890.051,1759.312 807.067,1454.248 		"/>
		<polygon fill="#C2DBEA" points="830.021,1256.283 807.067,1454.248 700.869,1351.335 		"/>
		<polygon fill="#6EABDF" stroke="#6EABDF" stroke-width="0.3306" points="2457.732,1403.281 2703.035,1537.662 2373.171,1436.535 
					"/>
		<polygon fill="#6EABDF" stroke="#6EABDF" stroke-width="0.3306" points="1698.989,846.729 1852.114,793.124 1630.404,1109.263 		
			"/>
		<polygon fill="#A0AAAD" points="700.869,1351.335 807.067,1454.248 651.201,1334.105 		"/>
		<polygon fill="#61707D" points="617.068,1106.962 700.869,1351.335 651.201,1334.105 		"/>
		<polygon fill="#8DA7B9" points="617.068,1106.962 651.201,1334.105 533.529,1416.644 		"/>
		<polygon fill="#6EABDF" stroke="#6EABDF" stroke-width="0.3306" points="2847.711,1604.236 2957.898,1718.539 2703.035,1537.662 
					"/>
		<polygon fill="#3B5062" points="890.051,1759.312 877.766,1867.074 807.067,1454.248 		"/>
		<polygon fill="#A3B8C8" points="890.051,1759.312 1038.009,1880.101 877.766,1867.074 		"/>
		<polygon fill="#AFC2CC" points="1360.986,1428.205 1511.561,1126.249 1482.395,1777.484 		"/>
		<polygon fill="#8DB5D5" points="1360.986,1428.205 1482.395,1777.484 1164.186,1873.74 		"/>
		<polygon fill="#BED3E1" points="1164.186,1873.74 1482.395,1777.484 1268.11,1903.955 		"/>
		<polygon fill="#7A9DBB" points="1164.186,1873.74 1268.11,1903.955 1038.009,1880.101 		"/>
		<polygon fill="#6EABDF" stroke="#6EABDF" stroke-width="0.3306" points="2703.035,1537.662 2957.898,1718.539 2843.781,1645.15 		
			"/>
		<polygon fill="#8296A6" points="807.067,1454.248 877.766,1867.074 742.124,1722.091 		"/>
		<polygon fill="#D8E3E3" points="807.067,1454.248 742.124,1722.091 651.201,1334.105 		"/>
		<polygon fill="#C5D7E1" points="1545.736,1066.015 1808.689,681.633 1751.587,974.958 		"/>
		<polygon fill="#CEDCE0" points="1545.736,1066.015 1751.587,974.958 1511.561,1126.249 		"/>
		<polygon fill="#728596" points="651.201,1334.105 742.124,1722.091 607.902,1455.611 		"/>
		<polygon fill="#6EABDF" stroke="#6EABDF" stroke-width="0.3306" points="431.83,1432.392 607.902,1455.611 439.15,1470.164 		"/>
		<polygon fill="#6EABDF" stroke="#6EABDF" stroke-width="0.3306" points="533.529,1416.644 607.902,1455.611 431.83,1432.392 		"/>
		<polygon fill="#9BB2C0" points="533.529,1416.644 651.201,1334.105 607.902,1455.611 		"/>
		<polygon fill="#95ACBD" points="877.766,1867.074 1038.009,1880.101 811.126,1900.423 		"/>
		<polygon fill="#7E878C" points="742.124,1722.091 811.126,1900.423 607.902,1455.611 		"/>
		<polygon fill="#A3ACAF" points="877.766,1867.074 811.126,1900.423 742.124,1722.091 		"/>
		<polygon fill="#CEE2EE" points="1511.561,1126.249 1751.587,974.958 1709.817,1551.564 		"/>
		<polygon fill="#86A8C4" points="1511.561,1126.249 1709.817,1551.564 1482.395,1777.484 		"/>
		<polygon fill="#B3CEE0" points="1751.587,974.958 1808.689,681.633 1709.817,1551.564 		"/>
		<polygon fill="#8A9498" points="2026.742,595.544 2166.379,811.708 1985.671,611.915 		"/>
		<polygon fill="#B4C9D5" points="1482.395,1777.484 1709.817,1551.564 1571.827,1953.943 		"/>
		<polygon fill="#A1C7E5" points="1482.395,1777.484 1571.827,1953.943 1268.11,1903.955 		"/>
		<polygon fill="#ADC7DB" points="607.902,1455.611 811.126,1900.423 678.935,1929.66 		"/>
		<polygon fill="#757C7F" points="607.902,1455.611 678.935,1929.66 560.733,1317.035 		"/>
		<polygon fill="#C1D3DF" points="1571.827,1953.943 1481.724,1965.203 1284.074,1905.353 		"/>
		<polygon fill="#758B9C" points="560.733,1317.035 678.935,1929.66 578.636,1758.673 		"/>
		<polygon fill="#B8D9F4" points="560.733,1317.035 578.636,1758.673 425.223,1409.664 		"/>
		<polygon fill="#E7F4FD" points="2166.379,811.708 2230.044,1374.767 1985.671,611.915 		"/>
		<polygon fill="#6E879B" points="425.223,1409.664 578.636,1758.673 423.582,1477.521 		"/>
		<polygon fill="#A7C6DF" points="278.18,1372.826 425.223,1409.664 423.582,1477.521 		"/>
		<polygon fill="#AACCE6" points="278.18,1372.826 423.582,1477.521 207.769,1573.742 		"/>
		<polygon fill="#E5F2F4" points="1985.671,611.915 2230.044,1374.767 2113.538,1765.912 		"/>
		<polygon fill="#AED0EC" points="1808.689,681.633 2113.538,1765.912 1709.817,1551.564 		"/>
		<polygon fill="#CEE3EF" points="1808.689,681.633 1985.671,611.915 2113.538,1765.912 		"/>
		<polygon fill="#EDF6F8" points="1709.817,1551.564 2113.538,1765.912 1948.954,1982.548 		"/>
		<polygon fill="#6EABDF" stroke="#6EABDF" stroke-width="0.3306" points="1571.827,1953.943 1820.307,1958.24 1481.724,1965.203 		
			"/>
		<polygon fill="#7F9BB3" points="1709.817,1551.564 1948.954,1982.548 1820.307,1958.24 		"/>
		<polygon fill="#D5E2E5" points="1709.817,1551.564 1820.307,1958.24 1571.827,1953.943 		"/>
		<polygon fill="#A9C1D4" points="1284.074,1905.353 1481.724,1965.203 1175.347,1949.044 		"/>
		<polygon fill="#87A8C3" points="1038.009,1880.101 1175.347,1949.044 811.126,1900.423 		"/>
		<polygon fill="#A8C2D6" points="1038.009,1880.101 1284.074,1905.353 1175.347,1949.044 		"/>
		<polygon fill="#C6DBE7" points="811.126,1900.423 1175.347,1949.044 678.935,1929.66 		"/>
		<polygon fill="#E4F2F5" points="2433.054,868.911 2535.68,1455.72 2166.379,811.708 		"/>
		<polygon fill="#9CBFDB" points="2166.379,811.708 2535.68,1455.72 2230.044,1374.767 		"/>
		<polygon fill="#BFCCCF" points="2433.054,868.911 2720.165,1291.871 2535.68,1455.72 		"/>
		<polygon fill="#A0C3E0" points="423.582,1477.521 435.689,1913.48 207.769,1573.742 		"/>
		<polygon fill="#B2D0E6" points="2230.044,1374.767 2322.062,1965.232 2113.538,1765.912 		"/>
		<polygon fill="#FFFFFF" points="2230.044,1374.767 2535.68,1455.72 2322.062,1965.232 		"/>
		<polygon fill="#FCFEFF" points="2113.538,1765.912 2322.062,1965.232 1948.954,1982.548 		"/>
		<polygon fill="#C0DCF3" points="423.582,1477.521 640.66,2000.613 435.689,1913.48 		"/>
		<polygon fill="#8E9CA4" points="578.636,1758.673 423.582,1477.521 640.66,2000.613 678.935,1929.66 		"/>
		<polygon fill="#CAD6DA" points="2720.165,1291.871 2989.018,1452.232 3011.281,1713.412 		"/>
		<polygon fill="#6C7E8B" points="2989.018,1452.232 3115.593,1705.371 3011.281,1713.412 		"/>
		<polygon fill="#6C7E8B" points="3251.521,1958.24 3299.248,2142.628 3235.283,2042.464 		"/>
		<polygon fill="#EDF6F5" points="2535.68,1455.72 2587.55,1838.83 2322.062,1965.232 		"/>
		<polygon fill="#94AEC4" points="2720.165,1291.871 3011.281,1713.412 2842.575,1794.15 		"/>
		<polygon fill="#AFC7D8" points="2720.165,1291.871 2842.575,1794.15 2535.68,1455.72 		"/>
		<polygon fill="#99B8D2" points="2535.68,1455.72 2842.575,1794.15 2587.55,1838.83 		"/>
		<polygon fill="#C5D6DF" points="2322.062,1965.232 2587.55,1838.83 2494.758,2024.63 		"/>
		<polygon fill="#DDEAED" points="678.935,1929.66 779.868,1996.728 640.66,2000.613 		"/>
		<polygon fill="#A0C2E0" points="435.689,1913.48 640.66,2000.613 370.726,2017.687 		"/>
		<polygon fill="#8EB0CB" points="207.769,1573.742 435.689,1913.48 370.726,2017.687 		"/>
		<polygon fill="#CEE6F9" points="207.769,1573.742 370.726,2017.687 184.126,1934.189 		"/>
		<polygon fill="#6EABDF" stroke="#6EABDF" stroke-width="0.3306" points="640.66,2000.613 779.868,1996.728 370.726,2017.687 		"/>
		<polygon fill="#8AB3D6" points="1175.347,1949.044 1820.307,1958.24 1640.188,2064.322 		"/>
		<polygon fill="#DFF0F8" points="1948.954,1982.548 2322.062,1965.232 2232.945,2046.72 		"/>
		<polygon fill="#91B7D9" points="1820.307,1958.24 2232.945,2046.72 1640.188,2064.322 		"/>
		<polygon fill="#6EABDF" stroke="#6EABDF" stroke-width="0.3306" points="1948.954,1982.548 2232.945,2046.72 1820.307,1958.24 		
			"/>
		<polygon fill="#6EABDF" stroke="#6EABDF" stroke-width="0.3306" points="2232.945,2046.72 1919.648,2061.24 1640.188,2064.322 		
			"/>
		<polygon fill="#96B5D0" points="678.935,1929.66 987.567,2063.05 779.868,1996.728 		"/>
		<polygon fill="#A7C5DE" points="678.935,1929.66 1175.347,1949.044 987.567,2063.05 		"/>
		<polygon fill="#65829B" points="3251.521,1958.24 3011.281,1713.412 3115.593,1705.371 		"/>
		<polygon fill="#D0DBDC" points="3011.281,1713.412 3115.593,1921.123 2842.575,1794.15 		"/>
		<polygon fill="#6EABDF" stroke="#6EABDF" stroke-width="0.3306" points="2232.945,2046.72 2457.153,2042.464 1919.648,2061.24 		
			"/>
		<polygon fill="#9AC1E2" points="2322.062,1965.232 2457.153,2042.464 2232.945,2046.72 		"/>
		<polygon fill="#D2DEE3" points="2322.062,1965.232 2494.758,2024.63 2457.153,2042.464 		"/>
		<polygon fill="#96B9D7" points="1175.347,1949.044 1640.188,2064.322 1495.798,2089.505 		"/>
		<polygon fill="#E0EFF3" points="2457.153,2042.464 2136.75,2163.751 1919.648,2061.24 		"/>
		<polygon fill="#CEDEE6" points="2587.55,1838.83 2982.132,2088.324 2494.758,2024.63 		"/>
		<polygon fill="#96B6D0" points="2842.575,1794.15 2982.132,2088.324 2587.55,1838.83 		"/>
		<polygon fill="#BDC9CC" points="2842.575,1794.15 3115.593,1921.123 3235.283,2042.464 2982.132,2088.324 		"/>
		<polygon fill="#97BBD9" points="370.726,2017.687 779.868,1996.728 273.253,2090.279 		"/>
		<polygon fill="#89B2D5" points="370.726,2017.687 273.253,2090.279 184.126,1934.189 		"/>
		<polygon fill="#9ABDDA" points="184.126,1934.189 273.253,2090.279 41.907,2087.601 		"/>
		<polygon fill="#8CB5D7" points="1175.347,1949.044 1225.753,2128.789 987.567,2063.05 		"/>
		<polygon fill="#9EC0DD" points="1175.347,1949.044 1495.798,2089.505 1225.753,2128.789 		"/>
		<polygon fill="#779AB9" points="2494.758,2024.63 2755.132,2168.212 2457.153,2042.464 		"/>
		<polygon fill="#9FBFD9" points="2494.758,2024.63 2982.132,2088.324 2755.132,2168.212 		"/>
		<polygon fill="#ACCAE2" points="779.868,1996.728 987.567,2063.05 561.807,2130.558 		"/>
		<polygon fill="#EAF5F8" points="779.868,1996.728 561.807,2130.558 273.253,2090.279 		"/>
		<polygon fill="#CADEEB" points="1919.648,2061.24 2136.75,2163.751 1619.74,2020.177 		"/>
		<polygon fill="#6EABDF" stroke="#6EABDF" stroke-width="0.3306" points="987.567,2063.05 1225.753,2128.789 793.82,2084.064 		"/>
		<polygon fill="#D8E7EE" points="3299.248,2142.628 2982.132,2088.324 3115.593,2064.669 		"/>
		<polygon fill="#D8E7EE" points="3235.283,2042.464 3112.497,1919.16 3251.239,1957.126 		"/>
		<polygon fill="#E9F4F7" points="3299.248,2142.628 3115.593,2064.669 3235.283,2042.464 		"/>
		<polygon fill="#C1D6E4" points="2982.132,2088.324 3299.248,2142.628 2755.132,2168.212 		"/>
		<polygon fill="#7FA6C7" points="1495.798,2089.505 1664.686,2239.199 1310.726,2046.236 		"/>
		<polygon fill="#AFC8DA" points="1495.798,2089.505 1619.74,2020.177 1664.686,2239.199 		"/>
		<polygon fill="#E0EFF3" points="1619.74,2020.177 2136.75,2163.751 1664.686,2239.199 		"/>
		<polygon fill="#8CB0CE" points="273.253,2090.279 221.654,2105.49 23.859,2036.849 		"/>
		<polygon fill="#6EABDF" stroke="#6EABDF" stroke-width="0.3306" points="273.253,2090.279 525.202,2031.06 221.654,2105.49 		"/>
		<polygon fill="#E2EEF2" points="2755.132,2153.996 3306.312,2142.628 3115.593,2225.007 		"/>
		<polygon fill="#98B9D7" points="2457.153,2042.464 3115.593,2225.007 3115.593,2225.007 2148.604,2156.707 		"/>
		<polygon fill="#DCEDF5" points="2136.75,2163.751 2131.876,2293.257 1664.686,2239.199 		"/>
		<polygon fill="#B7CBD9" points="3082.523,2329.492 2136.75,2163.751 2148.604,2156.707 3115.593,2225.007 		"/>
		<polygon fill="#AFCAE1" points="2136.75,2163.751 2992.279,2313.222 2131.876,2293.257 		"/>
		<line fill="none" stroke="#6EABDF" stroke-width="0.3306" x1="3082.523" y1="2329.492" x2="2992.279" y2="2313.222"/>
		<polygon fill="#B2CADB" points="525.202,2031.06 77.27,2218.5 221.654,2105.49 		"/>
		<polygon fill="#B3CBDD" points="26.438,2036.849 221.654,2105.49 77.27,2218.5 		"/>
		<polygon fill="#B9D1E3" points="1310.726,2046.236 2131.876,2293.257 1689.607,2316.953 		"/>
		<polygon fill="#8BB3D5" points="1310.726,2046.236 1689.607,2316.953 1097.766,2049.595 		"/>
		<polygon fill="#DFECEF" points="793.82,2084.064 768.061,2230.443 525.202,2031.06 		"/>
		<polygon fill="#AEC9DD" points="793.82,2084.064 1097.766,2049.595 768.061,2230.443 		"/>
		<polygon fill="#D3E2E8" points="525.202,2031.06 768.061,2230.443 77.27,2218.5 		"/>
		<polygon fill="#C1D2DC" points="2131.876,2293.257 2992.279,2313.222 2891.41,2378.785 2503.669,2378.785 		"/>
		<polygon fill="#CBDCE5" points="1097.766,2049.595 1089.917,2210.562 768.061,2230.443 		"/>
		<polygon fill="#E2F1F4" points="1097.766,2049.595 1689.607,2316.953 1089.917,2210.562 		"/>
		<polygon fill="#97BCDC" points="2131.876,2293.257 2530.102,2378.785 2346.68,2378.785 1689.607,2316.953 		"/>
		<polygon fill="#7EA0BE" points="1089.917,2210.562 1090.739,2378.785 923.227,2378.785 768.061,2230.443 		"/>
		<polygon fill="#D0DADC" points="1089.917,2210.562 1485.33,2378.785 1090.739,2378.785 		"/>
		<polygon fill="#90B3D3" points="1689.607,2316.953 2346.68,2378.785 1765.86,2378.785 		"/>
		<polygon fill="#F1F6F4" points="1689.607,2316.953 1765.86,2378.785 1485.33,2378.785 1089.917,2210.562 		"/>
		<polygon fill="#ADC2D1" points="768.061,2230.443 923.227,2378.785 769.114,2378.785 		"/>
		<polygon fill="#9BB5CC" points="77.27,2218.5 768.061,2230.443 769.114,2378.785 195.185,2378.785 		"/>
		<polygon fill="#AFC7D8" points="3011.281,1713.412 3115.593,1921.123 3251.521,1958.24 		"/>
	</g>
	<g id="Layer_1_1_">
		<polygon fill="#6EABDF" stroke="#6EABDF" stroke-width="0.3306" points="4178.376,1691.074 4249.784,1700.328 4130.663,1701.773 
					"/>
		<polygon fill="#6EABDF" stroke="#6EABDF" stroke-width="0.3306" points="4249.784,1700.328 4563.354,1698.375 4446.438,1716.162 
					"/>
		<polygon fill="#6EABDF" stroke="#6EABDF" stroke-width="0.3306" points="4563.354,1698.375 4736.667,1726.421 4446.438,1716.162 
					"/>
		<polygon fill="#6EABDF" stroke="#6EABDF" stroke-width="0.3306" points="4661.884,1087.542 4563.284,1017.275 4454.404,935.356 		
			"/>
		<polygon fill="#6EABDF" stroke="#6EABDF" stroke-width="0.3306" points="5186.154,1247.718 5557.757,1504.095 5524.698,1549.875 
					"/>
		<polygon fill="#6EABDF" stroke="#6EABDF" stroke-width="0.3306" points="5186.154,1247.718 5524.698,1549.875 5436.911,1489.273 
					"/>
		<polygon fill="#6EABDF" stroke="#6EABDF" stroke-width="0.3306" points="5097.564,845.765 5282.757,1098.382 5150.764,1045.987 		
			"/>
		<polygon fill="#6EABDF" stroke="#6EABDF" stroke-width="0.3306" points="5097.564,845.765 5150.764,1045.987 5021.593,702.766 		
			"/>
		<polygon fill="#9BAAB2" points="4828.404,391.099 4894.038,359.734 4736.911,542.688 		"/>
		<polygon fill="#D2E2E8" points="4242.104,896.794 4446.923,803.127 4269.548,1098 		"/>
		<polygon fill="#E4F0F0" points="4242.104,896.794 4269.548,1098 4165.652,1263.601 		"/>
		<polygon fill="#8AAAC3" points="4097.646,999.113 4165.652,1263.601 4042.229,1083.374 		"/>
		<polygon fill="#C8D9E0" points="4097.646,999.113 4242.104,896.794 4165.652,1263.601 		"/>
		<polygon fill="#6EABDF" stroke="#6EABDF" stroke-width="0.3306" points="5557.757,1504.095 5686.866,1519.046 5524.698,1549.875 
					"/>
		<polygon fill="#BFCED1" points="4736.911,542.688 4894.038,359.734 4836.669,571.737 		"/>
		<polygon fill="#5E7181" points="4736.911,542.688 4836.669,571.737 4608.934,526.883 		"/>
		<polygon fill="#6EABDF" stroke="#6EABDF" stroke-width="0.3306" points="5831.075,1593.607 5830.493,1663.771 5686.866,1519.046 
					"/>
		<polygon fill="#6EABDF" stroke="#6EABDF" stroke-width="0.3306" points="5831.075,1593.607 6012.932,1642.882 5830.493,1663.771 
					"/>
		<polygon fill="#9CB3C2" points="4446.923,803.127 4482.443,858.491 4269.548,1098 		"/>
		<polygon fill="#D7E7ED" points="4608.934,526.883 4836.669,571.737 4713.667,845.959 		"/>
		<polygon fill="#B0BFC5" points="4446.923,803.127 4713.667,845.959 4482.443,858.491 		"/>
		<polygon fill="#C7DCE7" points="4608.934,526.883 4713.667,845.959 4446.923,803.127 		"/>
		<polygon fill="#D9EDF6" points="4042.229,1083.374 4165.652,1263.601 4069.165,1577.117 		"/>
		<polygon fill="#D7E3E3" points="4894.038,359.734 4965.596,513.641 4836.669,571.737 		"/>
		<polygon fill="#DFE9E8" points="4836.669,571.737 4965.596,513.641 4713.667,845.959 		"/>
		<polygon fill="#CCE5F8" points="4165.652,1263.601 4220.702,1625.289 4069.165,1577.117 		"/>
		<polygon fill="#6EABDF" stroke="#6EABDF" stroke-width="0.3306" points="5282.757,1098.382 5550.54,1402.511 5457.271,1435.767 		
			"/>
		<polygon fill="#6EABDF" stroke="#6EABDF" stroke-width="0.3306" points="5150.764,1045.987 5457.271,1435.767 5165.286,1076.761 
					"/>
		<polygon fill="#6EABDF" stroke="#6EABDF" stroke-width="0.3306" points="5282.757,1098.382 5457.271,1435.767 5150.764,1045.987 
					"/>
		<polygon fill="#CADCE5" points="4269.548,1098 4482.443,858.491 4340.857,1427.435 		"/>
		<polygon fill="#C8DBE5" points="4165.652,1263.601 4340.857,1427.435 4220.702,1625.289 		"/>
		<polygon fill="#F5FAFB" points="4269.548,1098 4340.857,1427.435 4165.652,1263.601 		"/>
		<polygon fill="#D8EAF2" points="4482.443,858.491 4713.667,845.959 4638.02,1108.495 		"/>
		<polygon fill="#ACBEC8" points="4220.702,1625.289 4340.857,1427.435 4123.79,1872.97 		"/>
		<polygon fill="#E9F5FA" points="4069.165,1577.117 4220.702,1625.289 4123.79,1872.97 		"/>
		<polygon fill="#6EABDF" stroke="#6EABDF" stroke-width="0.3306" points="5165.286,1076.761 5313.841,1253.498 5175.854,1162.686 
					"/>
		<polygon fill="#82A6C3" points="4482.443,858.491 4544.632,1065.247 4340.857,1427.435 		"/>
		<polygon fill="#818E97" points="4482.443,858.491 4638.02,1108.495 4544.632,1065.247 		"/>
		<polygon fill="#6EABDF" stroke="#6EABDF" stroke-width="0.3306" points="5550.54,1402.511 5821.104,1536.892 5457.271,1435.767 		
			"/>
		<polygon fill="#BBC9CF" points="4713.667,845.959 4965.596,513.641 4882.561,792.355 		"/>
		<polygon fill="#6EABDF" stroke="#6EABDF" stroke-width="0.3306" points="4713.667,845.959 4882.561,792.355 4638.02,1108.495 		
			"/>
		<polygon fill="#A6BFD2" points="4965.596,513.641 4992.904,778.009 4882.561,792.355 		"/>
		<polygon fill="#6EABDF" stroke="#6EABDF" stroke-width="0.3306" points="5980.675,1603.466 6102.208,1717.769 5821.104,1536.892 
					"/>
		<polygon fill="#B7C8D0" points="4965.596,513.641 5118.975,829.542 4992.904,778.009 		"/>
		<polygon fill="#AFC2CC" points="4340.857,1427.435 4506.938,1125.48 4474.768,1776.716 		"/>
		<polygon fill="#8DB5D5" points="4340.857,1427.435 4474.768,1776.716 4123.79,1872.97 		"/>
		<polygon fill="#BED3E1" points="4123.79,1872.97 4474.768,1776.716 4238.417,1903.187 		"/>
		<polygon fill="#6EABDF" stroke="#6EABDF" stroke-width="0.3306" points="5821.104,1536.892 6102.208,1717.769 5976.341,1644.378 
					"/>
		<polygon fill="#C5D7E1" points="4544.632,1065.247 4834.665,680.866 4771.68,974.188 		"/>
		<polygon fill="#CEDCE0" points="4544.632,1065.247 4771.68,974.188 4506.938,1125.48 		"/>
		<polygon fill="#CEE2EE" points="4506.938,1125.48 4771.68,974.188 4725.607,1550.794 		"/>
		<polygon fill="#86A8C4" points="4506.938,1125.48 4725.607,1550.794 4474.768,1776.716 		"/>
		<polygon fill="#B3CEE0" points="4771.68,974.188 4834.665,680.866 4725.607,1550.794 		"/>
		<polygon fill="#8A9498" points="5075.167,594.776 5229.188,810.94 5029.87,611.146 		"/>
		<polygon fill="#ECF5F4" points="5075.167,594.776 5239.661,441.723 5229.188,810.94 		"/>
		<polygon fill="#B4C9D5" points="4474.768,1776.716 4725.607,1550.794 4573.411,1953.175 		"/>
		<polygon fill="#A1C7E5" points="4474.768,1776.716 4573.411,1953.175 4238.417,1903.187 		"/>
		<polygon fill="#EEF6F7" points="5239.661,441.723 5523.32,868.142 5229.188,810.94 		"/>
		<polygon fill="#C1D3DF" points="4573.411,1953.175 4474.027,1964.433 4256.025,1904.583 		"/>
		<polygon fill="#E7F4FD" points="5229.188,810.94 5299.404,1373.998 5029.87,611.146 		"/>
		<polygon fill="#E5F2F4" points="5029.87,611.146 5299.404,1373.998 5170.9,1765.142 		"/>
		<polygon fill="#AED0EC" points="4834.665,680.866 5170.9,1765.142 4725.607,1550.794 		"/>
		<polygon fill="#CEE3EF" points="4834.665,680.866 5029.87,611.146 5170.9,1765.142 		"/>
		<polygon fill="#EDF6F8" points="4725.607,1550.794 5170.9,1765.142 4989.37,1981.781 		"/>
		<polygon fill="#6EABDF" stroke="#6EABDF" stroke-width="0.3306" points="4573.411,1953.175 4847.477,1957.468 4474.027,1964.433 
					"/>
		<polygon fill="#7F9BB3" points="4725.607,1550.794 4989.37,1981.781 4847.477,1957.468 		"/>
		<polygon fill="#D5E2E5" points="4725.607,1550.794 4847.477,1957.468 4573.411,1953.175 		"/>
		<polygon fill="#E4F2F5" points="5523.32,868.142 5636.514,1454.953 5229.188,810.94 		"/>
		<polygon fill="#9CBFDB" points="5229.188,810.94 5636.514,1454.953 5299.404,1373.998 		"/>
		<polygon fill="#BFCCCF" points="5523.32,868.142 5839.997,1291.101 5636.514,1454.953 		"/>
		<polygon fill="#B2D0E6" points="5299.404,1373.998 5400.898,1964.462 5170.9,1765.142 		"/>
		<polygon fill="#FFFFFF" points="5299.404,1373.998 5636.514,1454.953 5400.898,1964.462 		"/>
		<polygon fill="#FCFEFF" points="5170.9,1765.142 5400.898,1964.462 4989.37,1981.781 		"/>
		<polygon fill="#CAD6DA" points="5839.997,1291.101 6136.534,1451.46 6161.089,1712.644 		"/>
		<polygon fill="#6C7E8B" points="6136.534,1451.46 6276.145,1704.601 6161.089,1712.644 		"/>
		<polygon fill="#6C7E8B" points="6426.068,1957.468 6478.708,2141.861 6408.154,2041.695 		"/>
		<polygon fill="#EDF6F5" points="5636.514,1454.953 5693.727,1838.062 5400.898,1964.462 		"/>
		<polygon fill="#94AEC4" points="5839.997,1291.101 6161.089,1712.644 5975.009,1793.38 		"/>
		<polygon fill="#AFC7D8" points="5839.997,1291.101 5975.009,1793.38 5636.514,1454.953 		"/>
		<polygon fill="#99B8D2" points="5636.514,1454.953 5975.009,1793.38 5693.727,1838.062 		"/>
		<polygon fill="#C5D6DF" points="5400.898,1964.462 5693.727,1838.062 5591.376,2023.863 		"/>
		<polygon fill="#8AB3D6" points="4136.104,1948.277 4847.477,1957.468 4648.811,2063.552 		"/>
		<polygon fill="#DFF0F8" points="4989.37,1981.781 5400.898,1964.462 5302.605,2045.953 		"/>
		<polygon fill="#91B7D9" points="4847.477,1957.468 5302.605,2045.953 4648.811,2063.552 		"/>
		<polygon fill="#6EABDF" stroke="#6EABDF" stroke-width="0.3306" points="4989.37,1981.781 5302.605,2045.953 4847.477,1957.468 		
			"/>
		<polygon fill="#6EABDF" stroke="#6EABDF" stroke-width="0.3306" points="5302.605,2045.953 4957.048,2060.47 4648.811,2063.552 		
			"/>
		<polygon fill="#65829B" points="6426.068,1957.468 6161.089,1712.644 6276.145,1704.601 		"/>
		<polygon fill="#D0DBDC" points="6161.089,1712.644 6276.145,1920.353 5975.009,1793.38 		"/>
		<polygon fill="#6EABDF" stroke="#6EABDF" stroke-width="0.3306" points="5302.605,2045.953 5549.9,2041.695 4957.048,2060.47 		
			"/>
		<polygon fill="#9AC1E2" points="5400.898,1964.462 5549.9,2041.695 5302.605,2045.953 		"/>
		<polygon fill="#D2DEE3" points="5400.898,1964.462 5591.376,2023.863 5549.9,2041.695 		"/>
		<polygon fill="#96B9D7" points="4136.104,1948.277 4648.811,2063.552 4489.552,2088.738 		"/>
		<polygon fill="#E0EFF3" points="5549.9,2041.695 5196.503,2162.982 4957.048,2060.47 		"/>
		<polygon fill="#CEDEE6" points="5693.727,1838.062 6128.938,2087.552 5591.376,2023.863 		"/>
		<polygon fill="#96B6D0" points="5975.009,1793.38 6128.938,2087.552 5693.727,1838.062 		"/>
		<polygon fill="#BDC9CC" points="5975.009,1793.38 6276.145,1920.353 6408.154,2041.695 6128.938,2087.552 		"/>
		<polygon fill="#779AB9" points="5591.376,2023.863 5878.562,2167.445 5549.9,2041.695 		"/>
		<polygon fill="#9FBFD9" points="5591.376,2023.863 6128.938,2087.552 5878.562,2167.445 		"/>
		<polygon fill="#CADEEB" points="4957.048,2060.47 5196.503,2162.982 4626.257,2019.408 		"/>
		<polygon fill="#D8E7EE" points="6478.708,2141.861 6128.938,2087.552 6276.145,2063.9 		"/>
		<polygon fill="#D8E7EE" points="6408.154,2041.695 6272.729,1918.39 6425.757,1956.357 		"/>
		<polygon fill="#E9F4F7" points="6478.708,2141.861 6276.145,2063.9 6408.154,2041.695 		"/>
		<polygon fill="#C1D6E4" points="6128.938,2087.552 6478.708,2141.861 5878.562,2167.445 		"/>
		<polygon fill="#7FA6C7" points="4489.552,2088.738 4675.829,2238.429 4285.421,2045.466 		"/>
		<polygon fill="#AFC8DA" points="4489.552,2088.738 4626.257,2019.408 4675.829,2238.429 		"/>
		<polygon fill="#E0EFF3" points="4626.257,2019.408 5196.503,2162.982 4675.829,2238.429 		"/>
		<polygon fill="#E2EEF2" points="5878.562,2153.228 6486.499,2141.861 6276.145,2224.24 		"/>
		<polygon fill="#98B9D7" points="5549.9,2041.695 6276.145,2224.24 6276.145,2224.24 5209.581,2155.937 		"/>
		<polygon fill="#DCEDF5" points="5196.503,2162.982 5191.128,2292.488 4675.829,2238.429 		"/>
		<polygon fill="#B7CBD9" points="6239.667,2328.72 5196.503,2162.982 5209.581,2155.937 6276.145,2224.24 		"/>
		<polygon fill="#AFCAE1" points="5196.503,2162.982 6140.13,2312.455 5191.128,2292.488 		"/>
		<line fill="none" stroke="#6EABDF" stroke-width="0.3306" x1="6239.667" y1="2328.72" x2="6140.13" y2="2312.455"/>
		<polygon fill="#B9D1E3" points="4259.921,2032.691 5191.128,2292.488 4703.299,2318.583 		"/>
		<polygon fill="#C1D2DC" points="5191.128,2292.488 6140.13,2312.455 6028.874,2378.017 5601.206,2378.017 		"/>
		<polygon fill="#97BCDC" points="5191.128,2292.488 5630.361,2378.017 5428.052,2378.017 4703.318,2316.183 		"/>
		<polygon fill="#90B3D3" points="4703.318,2316.183 5428.052,2378.017 4787.423,2378.017 		"/>
		<g id="Layer_2" display="none">
		</g>
		<polygon fill="#AFC7D8" points="6161.089,1712.644 6276.145,1920.353 6426.068,1957.468 		"/>
		<polygon fill="#A9C1D4" points="4256.025,1904.583 4454.092,1952.384 4136.084,1950.677 		"/>
		<polygon fill="#9EC0DD" points="4136.084,1948.277 4489.532,2088.738 4183.157,2105.552 		"/>
	</g>
</g>
</svg>
